<?xml version="1.0" standalone="no"?>
<!DOCTYPE svg PUBLIC "-//W3C//DTD SVG 20010904//EN"
 "http://www.w3.org/TR/2001/REC-SVG-20010904/DTD/svg10.dtd">
<svg version="1.0" xmlns="http://www.w3.org/2000/svg"
 width="614.000000pt" height="614.000000pt" viewBox="0 0 614.000000 614.000000"
 preserveAspectRatio="xMidYMid meet">
<metadata>
Created by potrace 1.11, written by Peter Selinger 2001-2013
</metadata>
<g transform="translate(0.000000,614.000000) scale(0.100000,-0.100000)"
fill="#000000" stroke="none">
<path d="M1590 5604 c-138 -25 -273 -116 -353 -240 -85 -130 -96 -347 -26
-487 42 -83 151 -203 200 -219 8 -3 -49 -156 -100 -273 -5 -11 -23 -56 -41
-100 -17 -44 -37 -93 -45 -110 -7 -16 -27 -66 -45 -110 -17 -44 -37 -93 -45
-110 -7 -16 -56 -136 -108 -265 -177 -435 -336 -822 -340 -826 -2 -2 -24 0
-48 4 -77 15 -176 4 -262 -28 -346 -130 -442 -572 -181 -836 199 -200 512
-204 724 -8 l61 57 52 -28 c29 -15 106 -57 172 -93 66 -35 149 -81 185 -100
36 -19 99 -54 140 -77 41 -23 82 -45 90 -48 8 -4 22 -11 30 -17 13 -8 231
-127 520 -282 57 -31 243 -134 257 -143 1 0 -4 -25 -12 -55 -82 -305 142 -613
461 -637 248 -19 469 139 534 380 22 80 23 154 5 253 -6 30 -4 31 92 77 180
84 317 149 382 178 63 29 90 42 325 153 65 31 120 56 121 56 1 0 78 36 169 80
92 44 169 80 171 80 2 0 63 28 137 63 73 35 170 81 215 102 l82 38 63 -64 c35
-36 83 -76 108 -91 209 -122 469 -88 638 83 267 272 151 723 -218 845 -73 24
-224 24 -301 1 -31 -10 -86 -36 -123 -58 l-66 -40 -133 118 c-174 155 -186
166 -297 264 -52 46 -100 88 -106 94 -6 5 -38 33 -70 61 -33 28 -79 70 -103
92 l-45 41 32 68 c38 84 50 134 50 219 0 139 -48 254 -148 354 -109 110 -237
161 -382 155 -89 -4 -117 -10 -182 -37 -64 -27 -132 -73 -171 -115 l-30 -32
-490 299 c-269 164 -503 308 -520 318 -16 11 -74 46 -128 78 -53 33 -108 66
-122 74 -13 8 -66 41 -118 73 l-95 58 20 62 c44 143 14 326 -75 442 -70 92
-174 167 -272 195 -43 12 -195 21 -235 14z m559 -876 c39 -24 170 -104 291
-178 122 -74 236 -144 254 -155 19 -11 163 -99 320 -195 157 -96 294 -179 304
-185 25 -14 87 -53 164 -102 65 -41 67 -44 57 -70 -22 -58 -34 -150 -28 -218
3 -38 4 -71 3 -73 -2 -3 -332 -130 -406 -156 -23 -8 -113 -42 -198 -75 l-155
-59 -18 21 c-57 66 -76 85 -112 113 -88 68 -195 105 -309 106 l-74 1 -22 71
c-49 160 -79 256 -104 341 -15 50 -31 101 -36 115 -5 14 -23 72 -40 130 -18
58 -41 132 -52 165 -11 33 -21 67 -23 75 -2 8 -17 60 -34 115 -17 55 -31 105
-31 110 0 6 23 23 50 40 28 16 67 46 87 67 20 21 38 38 39 38 1 0 34 -19 73
-42z m-473 -140 c54 0 87 -4 89 -12 2 -6 18 -58 35 -116 17 -58 35 -116 40
-130 5 -14 23 -72 40 -130 17 -58 41 -132 52 -165 11 -33 21 -67 23 -75 2 -8
15 -51 28 -95 14 -44 40 -127 58 -185 18 -58 34 -109 35 -115 1 -5 9 -30 17
-55 l14 -45 -60 -35 c-73 -43 -158 -133 -197 -209 -36 -72 -58 -177 -54 -256
l4 -60 -113 -43 c-61 -23 -137 -52 -167 -63 -30 -11 -64 -25 -75 -29 -21 -9
-233 -88 -325 -122 -30 -11 -66 -24 -80 -30 -19 -8 -27 -6 -37 9 -47 69 -74
100 -116 133 -26 21 -53 40 -58 42 -9 3 107 307 161 423 5 11 48 117 95 235
48 118 93 229 100 245 7 17 43 104 80 195 37 90 72 176 78 190 6 14 11 27 12
30 1 3 5 14 10 25 43 105 166 406 174 428 9 22 15 27 31 22 11 -3 58 -6 106
-7z m1923 -1210 c45 -63 62 -81 112 -119 l46 -35 -49 -115 c-27 -63 -57 -132
-67 -154 -10 -22 -24 -56 -31 -76 -26 -73 -24 -72 -146 -45 -60 14 -125 28
-144 31 -19 3 -51 10 -70 15 -19 5 -46 11 -60 14 -14 2 -90 19 -170 36 -80 17
-156 33 -170 36 -21 5 -25 11 -25 42 -1 20 -4 57 -7 82 l-7 45 57 22 c249 94
558 210 611 230 36 13 67 25 69 28 11 11 23 3 51 -37z m836 -169 c39 -34 90
-80 115 -103 25 -22 81 -72 125 -111 44 -38 85 -74 91 -80 6 -5 44 -39 84 -75
41 -36 117 -103 170 -149 52 -47 96 -86 97 -86 2 -1 -11 -27 -28 -59 -24 -45
-35 -56 -50 -51 -36 10 -54 14 -79 19 -50 9 -736 157 -770 166 -19 5 -48 11
-65 13 -26 4 -155 32 -316 68 -26 6 -55 12 -65 14 -11 1 -18 9 -16 16 3 14 57
145 97 234 12 28 32 72 43 98 20 44 23 47 49 41 15 -4 64 -7 108 -7 99 -1 203
29 271 77 27 19 54 34 59 35 6 0 42 -27 80 -60z m-1545 -393 c14 -3 66 -15
115 -25 50 -11 184 -41 299 -66 115 -25 211 -47 213 -49 3 -3 -12 -44 -47
-121 -10 -22 -32 -74 -50 -115 -18 -41 -40 -93 -50 -115 -16 -36 -88 -205
-110 -258 -5 -12 -54 -125 -108 -252 l-99 -230 -34 3 c-19 1 -69 3 -111 3
l-78 1 -14 46 c-8 26 -33 108 -56 182 -23 74 -50 162 -60 195 -10 33 -46 150
-80 260 -34 110 -65 212 -70 227 -7 24 -3 29 46 63 75 52 143 130 179 204 33
68 26 65 115 47z m-1025 -83 c31 -59 143 -165 207 -196 88 -42 170 -60 259
-55 l77 4 15 -50 c9 -28 33 -109 55 -181 22 -71 75 -242 117 -380 42 -137 83
-267 90 -287 l14 -37 -57 -35 c-32 -19 -77 -55 -100 -80 l-43 -46 -32 16 c-38
20 -794 430 -887 482 -36 20 -78 43 -95 52 -44 23 -429 233 -433 236 -2 1 3
32 11 69 9 41 14 98 12 150 -4 71 -2 84 13 90 9 3 71 27 137 52 66 25 161 61
210 80 50 20 108 42 130 49 22 7 92 33 155 58 63 24 117 45 120 45 3 1 14 -16
25 -36z m2075 -143 c124 -27 268 -58 320 -69 52 -11 127 -27 165 -36 39 -8 81
-17 95 -20 52 -10 72 -14 88 -19 9 -3 33 -8 52 -11 19 -4 111 -23 204 -43
l168 -37 2 -55 c2 -30 6 -74 11 -97 l7 -42 -83 -39 c-46 -22 -115 -54 -154
-72 -38 -18 -113 -53 -165 -77 -52 -25 -122 -58 -155 -73 -33 -15 -98 -46
-145 -68 -262 -122 -395 -184 -475 -222 -49 -23 -123 -57 -162 -76 -40 -19
-108 -50 -150 -70 -43 -20 -110 -51 -149 -69 l-70 -32 -24 33 c-20 30 -70 77
-123 117 -15 11 7 68 225 575 239 556 242 563 268 557 14 -4 126 -29 250 -55z"/>
</g>
</svg>
